<?xml version="1.0" encoding="utf-8"?>
<!-- Generator: Adobe Illustrator 19.0.0, SVG Export Plug-In . SVG Version: 6.00 Build 0)  -->
<svg version="1.1" id="图层_1" xmlns="http://www.w3.org/2000/svg" xmlns:xlink="http://www.w3.org/1999/xlink" x="0px" y="0px"
	 viewBox="0 0 268.4 164.7" style="enable-background:new 0 0 268.4 164.7;" xml:space="preserve">
<style type="text/css">
	.st0{fill:none;stroke:#000000;stroke-width:12;stroke-miterlimit:10;}
	.st1{fill:none;stroke:#000000;stroke-width:10;stroke-miterlimit:10;}
	.st2{fill:#FF7BAC;}
	.st3{fill:#006DB1;}
	.st4{fill:none;stroke:url(#XMLID_33_);stroke-width:10;stroke-miterlimit:10;}
	.st5{fill:none;stroke:url(#XMLID_36_);stroke-width:10;stroke-miterlimit:10;}
	.st6{fill:#59B3E1;}
	.st7{fill:none;stroke:url(#XMLID_37_);stroke-width:10;stroke-miterlimit:10;}
	.st8{fill:url(#XMLID_38_);}
	.st9{fill:url(#XMLID_39_);}
	.st10{fill:url(#XMLID_40_);}
	.st11{fill:none;}
</style>
<g id="XMLID_86_">
		<rect id="XMLID_28_" x="64.6" y="99.4" transform="matrix(0.5784 0.8158 -0.8158 0.5784 131.1458 -44.9078)" class="st2" width="88.8" height="10"/>
		<rect id="XMLID_27_" x="75.1" y="100.9" transform="matrix(-0.7066 0.7076 -0.7076 -0.7066 277.3058 96.4243)" class="st3" width="87.1" height="9.6"/>
	<linearGradient id="XMLID_33_" gradientUnits="userSpaceOnUse" x1="165.8683" y1="96.6525" x2="255.0946" y2="96.6525">
		<stop  offset="0" style="stop-color:#CCE0F4"/>
		<stop  offset="6.405089e-002" style="stop-color:#C3DCF2"/>
		<stop  offset="0.1706" style="stop-color:#A9D2EE"/>
		<stop  offset="0.3066" style="stop-color:#80C2E7"/>
		<stop  offset="0.4649" style="stop-color:#47ACDE"/>
		<stop  offset="0.5674" style="stop-color:#1E9CD7"/>
		<stop  offset="0.8652" style="stop-color:#0075BE"/>
		<stop  offset="0.9944" style="stop-color:#005B97"/>
	</linearGradient>
	<path id="XMLID_26_" class="st4" d="M198.7,149.1c28.5-0.6,51.4-23.8,51.4-52.5c0-29-23.5-52.5-52.5-52.5c-8,0-20.7,3.2-29,8.7"/>
	<linearGradient id="XMLID_36_" gradientUnits="userSpaceOnUse" x1="8.9785" y1="106.0385" x2="94.3147" y2="106.0385">
		<stop  offset="0" style="stop-color:#CCE0F4"/>
		<stop  offset="6.405089e-002" style="stop-color:#C3DCF2"/>
		<stop  offset="0.1706" style="stop-color:#A9D2EE"/>
		<stop  offset="0.3066" style="stop-color:#80C2E7"/>
		<stop  offset="0.4649" style="stop-color:#47ACDE"/>
		<stop  offset="0.5674" style="stop-color:#1E9CD7"/>
		<stop  offset="0.8652" style="stop-color:#0075BE"/>
		<stop  offset="0.9944" style="stop-color:#005B97"/>
	</linearGradient>
	<path id="XMLID_32_" class="st5" d="M90.5,78.4c-18.3-22.2-53.9-20.2-69.6,3.8c-15,23-4.3,55,21.4,64.3
		c15.6,5.7,33.6,1.7,45.4-10.1"/>
	<circle id="XMLID_22_" class="st6" cx="199.3" cy="149.2" r="5.1"/>
	<circle id="XMLID_21_" class="st3" cx="149.8" cy="74.5" r="4.8"/>
	<circle id="XMLID_23_" class="st2" cx="134.6" cy="140.3" r="5"/>
	<linearGradient id="XMLID_37_" gradientUnits="userSpaceOnUse" x1="80.0946" y1="47.7939" x2="176.4662" y2="47.7939">
		<stop  offset="0" style="stop-color:#FF7BAC"/>
		<stop  offset="1" style="stop-color:#FF7BAC;stop-opacity:0"/>
	</linearGradient>
	<path id="XMLID_29_" class="st7" d="M171.5,53.9c-1.5-22.5-20.3-40.3-43.1-40.3c-23.9,0-43.2,19.4-43.2,43.3
		c0,10.2,3.5,19.5,9.4,26.9"/>
	<circle id="XMLID_30_" class="st2" cx="93.1" cy="81.7" r="4.6"/>
	<circle id="XMLID_25_" class="st2" cx="91.1" cy="78.8" r="5"/>
		<rect id="XMLID_31_" x="82.9" y="134.5" transform="matrix(0.6946 0.7194 -0.7194 0.6946 125.0536 -21.5456)" class="st3" width="9.9" height="4"/>
	<linearGradient id="XMLID_38_" gradientUnits="userSpaceOnUse" x1="79.9529" y1="51.3652" x2="174.8533" y2="51.3652">
		<stop  offset="0" style="stop-color:#FF7BAC"/>
		<stop  offset="1" style="stop-color:#FF7BAC;stop-opacity:0"/>
	</linearGradient>
	<path id="XMLID_35_" class="st8" d="M95.7,93.4c1.2-3.2,2.8-6.3,4.6-9.1c-6.6-7-10.7-16.4-10.7-26.8c0-21.5,17.5-39,39-39
		c18.6,0,34.2,13.1,38.1,30.5c2.6-1.6,5.3-3,8.2-4.2c-5.7-20.4-24.4-35.4-46.6-35.4C101.6,9.4,80,31,80,57.7
		C80,71.8,86,84.5,95.7,93.4z"/>
	<linearGradient id="XMLID_39_" gradientUnits="userSpaceOnUse" x1="164.2713" y1="92.2512" x2="255.3446" y2="92.2512">
		<stop  offset="0" style="stop-color:#CCE0F4"/>
		<stop  offset="6.405089e-002" style="stop-color:#C3DCF2"/>
		<stop  offset="0.1706" style="stop-color:#A9D2EE"/>
		<stop  offset="0.3066" style="stop-color:#80C2E7"/>
		<stop  offset="0.4649" style="stop-color:#47ACDE"/>
		<stop  offset="0.5674" style="stop-color:#1E9CD7"/>
		<stop  offset="0.8652" style="stop-color:#0075BE"/>
		<stop  offset="0.9944" style="stop-color:#005B97"/>
	</linearGradient>
	<path id="XMLID_34_" class="st9" d="M169.6,58.1c7.9-5.8,17.6-9.2,28.2-9.2c26.3,0,47.7,21.3,47.7,47.7c0,17.1-9,32.1-22.5,40.5
		l5.6,8.2c16.1-10.2,26.8-28.1,26.8-48.6c0-31.7-25.7-57.4-57.4-57.4c-12.6,0-24.2,4.1-33.7,11L169.6,58.1z"/>
	<linearGradient id="XMLID_40_" gradientUnits="userSpaceOnUse" x1="157.0198" y1="71.9679" x2="285.0198" y2="-143.5321">
		<stop  offset="0" style="stop-color:#CCE0F4"/>
		<stop  offset="6.405089e-002" style="stop-color:#C3DCF2"/>
		<stop  offset="0.1706" style="stop-color:#A9D2EE"/>
		<stop  offset="0.3066" style="stop-color:#80C2E7"/>
		<stop  offset="0.4649" style="stop-color:#47ACDE"/>
		<stop  offset="0.5674" style="stop-color:#1E9CD7"/>
		<stop  offset="0.8652" style="stop-color:#0075BE"/>
		<stop  offset="0.9944" style="stop-color:#005B97"/>
	</linearGradient>
	<circle id="XMLID_24_" class="st10" cx="168.3" cy="52.9" r="4.9"/>
</g>
<rect id="_x3C_切片_x3E_" x="5.1" y="4.7" class="st11" width="257" height="155"/>
</svg>