<?xml version="1.0" encoding="utf-8"?>
<!-- Generator: Adobe Illustrator 19.0.0, SVG Export Plug-In . SVG Version: 6.00 Build 0)  -->
<svg version="1.1" id="图层_1" xmlns="http://www.w3.org/2000/svg" xmlns:xlink="http://www.w3.org/1999/xlink" x="0px" y="0px"
	 viewBox="0 0 300 207" style="enable-background:new 0 0 300 207;" xml:space="preserve">
<style type="text/css">
	.st0{fill:#29ABE2;}
	.st1{fill:#FF7BAC;}
	.st2{fill:none;stroke:#29ABE2;stroke-width:14;stroke-miterlimit:10;}
	.st3{fill:#0071BC;}
	.st4{fill:none;}
</style>
<g id="XMLID_100_">
	
		<rect id="XMLID_33_" x="98" y="107" transform="matrix(0.7423 0.6701 -0.6701 0.7423 98.6872 -40.5418)" class="st0" width="8.1" height="2"/>
	
		<rect id="XMLID_114_" x="82.5" y="126" transform="matrix(0.5784 0.8158 -0.8158 0.5784 161.9151 -47.9733)" class="st1" width="89.8" height="13.3"/>
	
		<rect id="XMLID_113_" x="92" y="127.4" transform="matrix(-0.7066 0.7076 -0.7076 -0.7066 327.6719 132.9581)" class="st0" width="88.5" height="14"/>
	<path id="XMLID_36_" class="st2" d="M103,100.9c-20-16.4-51.6-11.1-64.8,11.2c-13.2,22.2-2.9,52.6,21.1,62.2
		c15.8,6.3,34.6,2.4,46.6-9.6"/>
	<circle id="XMLID_110_" class="st3" cx="223.4" cy="177" r="8.2"/>
	<circle id="XMLID_109_" class="st0" cx="167.4" cy="103.5" r="7.1"/>
	<circle id="XMLID_108_" class="st1" cx="153.7" cy="169.6" r="6.8"/>
	<circle id="XMLID_106_" class="st1" cx="111.4" cy="110" r="4.6"/>
	<circle id="XMLID_105_" class="st1" cx="109.4" cy="107" r="5"/>
	<rect id="_x3C_切片_x3E__1_" x="23.4" y="32.9" class="st4" width="257" height="155"/>
	<path id="XMLID_117_" class="st1" d="M113.4,103.9h1.3c-5.8-6-9.2-16.5-9.2-26.4c0-23.6,19.2-43,43-43c22,0,40.2,15.4,42.7,37.4
		h15.4c-2.3-29-27.2-52.6-57.5-52.6c-31.9,0-57.4,25.8-57.4,57.5c0,18,8.7,34.1,21.7,44.6V103.9z"/>
	<ellipse id="XMLID_101_" class="st3" cx="198.8" cy="75.6" rx="8.3" ry="8.6"/>
	<path id="XMLID_37_" class="st3" d="M216.9,64c-6.6,0-13.2,1.1-19,3.1c0.6,1.1,1,2.5,1,3.8c0,3.5-2.2,6.4-5.4,7.5
		c2.1,0.3,3.8,1.7,4.7,3.5h6c3.9-1,8.1-1.7,12.4-1.7c24.6,0,44.3,19.9,44.3,44.5c0,22.4-16.8,40.9-38.3,44l-1.2,0.3v15.9h4.1
		c29.1-4,52.2-29.5,52.2-60.1C277.7,91.1,250.5,64,216.9,64z"/>
	
		<rect id="XMLID_38_" x="199.2" y="80.6" transform="matrix(0.9543 -0.2988 0.2988 0.9543 -14.9489 65.143)" class="st3" width="12.8" height="1.7"/>
</g>
</svg>
