<?xml version="1.0" encoding="utf-8"?>
<!-- Generator: Adobe Illustrator 19.0.0, SVG Export Plug-In . SVG Version: 6.00 Build 0)  -->
<svg version="1.1" id="图层_1" xmlns="http://www.w3.org/2000/svg" xmlns:xlink="http://www.w3.org/1999/xlink" x="0px" y="0px"
	 viewBox="0 0 268.4 164.7" style="enable-background:new 0 0 268.4 164.7;" xml:space="preserve">
<style type="text/css">
	.st0{fill:none;stroke:#000000;stroke-width:12;stroke-miterlimit:10;}
	.st1{fill:none;stroke:#000000;stroke-width:10;stroke-miterlimit:10;}
	.st2{fill:#FF7BAC;}
	.st3{fill:#006DB1;}
	.st4{fill:none;stroke:url(#XMLID_33_);stroke-width:10;stroke-miterlimit:10;}
	.st5{fill:none;stroke:url(#XMLID_36_);stroke-width:10;stroke-miterlimit:10;}
	.st6{fill:#59B3E1;}
	.st7{fill:none;stroke:url(#XMLID_37_);stroke-width:10;stroke-miterlimit:10;}
	.st8{fill:url(#XMLID_38_);}
	.st9{fill:url(#XMLID_39_);}
	.st10{fill:url(#XMLID_40_);}
	.st11{fill:none;}
</style>
<path id="XMLID_1_" class="st0" d="M57.8-127.3c3.7-7,5.9-14.4,5.9-22.6c0-25.6-20.7-46.3-46.3-46.3s-46.3,20.7-46.3,46.3
	c0,8.2,2.1,15.6,5.9,22.6"/>
<path id="XMLID_3_" class="st0" d="M101.1-53.2c22-3.4,39.3-22.6,39.3-45.8c0-25.6-20.5-46.3-46.1-46.3c-20.2,0-37.4,12.9-43.7,30.9
	"/>
<path id="XMLID_2_" class="st0" d="M-18.2-119.3c-7.6-15-23.3-25.7-41.4-25.7c-25.6,0-46.1,20.7-46.1,46.2
	c0,23.3,16.8,42.5,39.8,45.7"/>
<line id="XMLID_6_" class="st0" x1="-37.9" y1="-51.3" x2="37.9" y2="-125.3"/>
<rect id="XMLID_5_" x="-67.4" y="-59.3" width="34" height="12.2"/>
<rect id="XMLID_4_" x="-42.1" y="-94.1" transform="matrix(0.5475 0.8368 -0.8368 0.5475 -72.4838 -41.9834)" width="89.3" height="12.2"/>
<polygon id="XMLID_8_" points="17.1,-59.3 17.1,-54.6 21.8,-47.3 102.1,-47.3 102.1,-59.3 "/>
<path id="XMLID_7_" class="st0" d="M-167.5,20.7c1-7.9,0.3-15.5-2.7-23.2c-9.2-23.8-36-35.7-59.9-26.4s-35.7,36-26.4,59.9
	c3,7.6,7.6,13.7,13.6,18.9"/>
<path id="XMLID_9_" class="st0" d="M-241,51.9c-7.3-3.1-14.8-4.6-23-3.8c-25.5,2.3-44.2,24.8-41.9,50.2c2.3,25.5,24.8,44.2,50.2,42
	c8.2-0.7,15.3-3.5,22-7.9"/>
<path id="XMLID_10_" class="st0" d="M-120.2,138.1c19.5-8.2,34.6-25.7,38.7-48.1c6.5-35.2-16.8-69-52.1-75.4
	c-11.3-2.1-22-1-32.6,2.4l-0.9,4.8"/>
<rect id="XMLID_12_" x="-356.5" y="-116.6" transform="matrix(0.5508 0.8346 -0.8346 0.5508 -231.2203 206.0734)" width="99" height="9.6"/>
<rect id="XMLID_11_" x="-342.5" y="-118.2" transform="matrix(-0.6975 0.7166 -0.7166 -0.6975 -589.1758 22.5541)" width="86.4" height="10.2"/>
<path id="XMLID_15_" class="st1" d="M-218.3-69.9c28.5-0.6,51.4-23.8,51.4-52.5c0-29-23.5-52.5-52.5-52.5c-8,0-20.7,3.2-29,8.7"/>
<path id="XMLID_16_" class="st1" d="M-323-136c-7.7-12.2-21.2-20.3-36.6-20.3c-23.9,0-43.3,19.4-43.3,43.2
	c0,23.9,19.4,43.3,43.3,43.3c11.9,0,22.8-4.8,30.6-12.7"/>
<path id="XMLID_13_" class="st1" d="M-245.5-165.1c-1.5-22.5-20.3-40.3-43.1-40.3c-23.9,0-43.3,19.4-43.3,43.3
	c0,10.2,3.5,19.5,9.4,26.9"/>
<circle id="XMLID_14_" cx="-247.5" cy="-164.3" r="3.1"/>
<circle id="XMLID_17_" cx="-217.7" cy="-69.8" r="5.1"/>
<circle id="XMLID_18_" cx="-269.4" cy="-143.7" r="5"/>
<circle id="XMLID_19_" cx="-279.4" cy="-69.7" r="5"/>
<g id="XMLID_86_">
	
		<rect id="XMLID_28_" x="64.6" y="99.4" transform="matrix(0.5784 0.8158 -0.8158 0.5784 131.1458 -44.9078)" class="st2" width="88.8" height="10"/>
	
		<rect id="XMLID_27_" x="75.1" y="100.9" transform="matrix(-0.7066 0.7076 -0.7076 -0.7066 277.3058 96.4243)" class="st3" width="87.1" height="9.6"/>
	<linearGradient id="XMLID_33_" gradientUnits="userSpaceOnUse" x1="165.8683" y1="96.6525" x2="255.0946" y2="96.6525">
		<stop  offset="0" style="stop-color:#CCE0F4"/>
		<stop  offset="6.405089e-002" style="stop-color:#C3DCF2"/>
		<stop  offset="0.1706" style="stop-color:#A9D2EE"/>
		<stop  offset="0.3066" style="stop-color:#80C2E7"/>
		<stop  offset="0.4649" style="stop-color:#47ACDE"/>
		<stop  offset="0.5674" style="stop-color:#1E9CD7"/>
		<stop  offset="0.8652" style="stop-color:#0075BE"/>
		<stop  offset="0.9944" style="stop-color:#005B97"/>
	</linearGradient>
	<path id="XMLID_26_" class="st4" d="M198.7,149.1c28.5-0.6,51.4-23.8,51.4-52.5c0-29-23.5-52.5-52.5-52.5c-8,0-20.7,3.2-29,8.7"/>
	<linearGradient id="XMLID_36_" gradientUnits="userSpaceOnUse" x1="8.9785" y1="106.0385" x2="94.3147" y2="106.0385">
		<stop  offset="0" style="stop-color:#CCE0F4"/>
		<stop  offset="6.405089e-002" style="stop-color:#C3DCF2"/>
		<stop  offset="0.1706" style="stop-color:#A9D2EE"/>
		<stop  offset="0.3066" style="stop-color:#80C2E7"/>
		<stop  offset="0.4649" style="stop-color:#47ACDE"/>
		<stop  offset="0.5674" style="stop-color:#1E9CD7"/>
		<stop  offset="0.8652" style="stop-color:#0075BE"/>
		<stop  offset="0.9944" style="stop-color:#005B97"/>
	</linearGradient>
	<path id="XMLID_32_" class="st5" d="M90.5,78.4c-18.3-22.2-53.9-20.2-69.6,3.8c-15,23-4.3,55,21.4,64.3
		c15.6,5.7,33.6,1.7,45.4-10.1"/>
	<circle id="XMLID_22_" class="st6" cx="199.3" cy="149.2" r="5.1"/>
	<circle id="XMLID_21_" class="st3" cx="149.8" cy="74.5" r="4.8"/>
	<circle id="XMLID_23_" class="st2" cx="134.6" cy="140.3" r="5"/>
	<linearGradient id="XMLID_37_" gradientUnits="userSpaceOnUse" x1="80.0946" y1="47.7939" x2="176.4662" y2="47.7939">
		<stop  offset="0" style="stop-color:#FF7BAC"/>
		<stop  offset="1" style="stop-color:#FF7BAC;stop-opacity:0"/>
	</linearGradient>
	<path id="XMLID_29_" class="st7" d="M171.5,53.9c-1.5-22.5-20.3-40.3-43.1-40.3c-23.9,0-43.2,19.4-43.2,43.3
		c0,10.2,3.5,19.5,9.4,26.9"/>
	<circle id="XMLID_30_" class="st2" cx="93.1" cy="81.7" r="4.6"/>
	<circle id="XMLID_25_" class="st2" cx="91.1" cy="78.8" r="5"/>
	
		<rect id="XMLID_31_" x="82.9" y="134.5" transform="matrix(0.6946 0.7194 -0.7194 0.6946 125.0536 -21.5456)" class="st3" width="9.9" height="4"/>
	<linearGradient id="XMLID_38_" gradientUnits="userSpaceOnUse" x1="79.9529" y1="51.3652" x2="174.8533" y2="51.3652">
		<stop  offset="0" style="stop-color:#FF7BAC"/>
		<stop  offset="1" style="stop-color:#FF7BAC;stop-opacity:0"/>
	</linearGradient>
	<path id="XMLID_35_" class="st8" d="M95.7,93.4c1.2-3.2,2.8-6.3,4.6-9.1c-6.6-7-10.7-16.4-10.7-26.8c0-21.5,17.5-39,39-39
		c18.6,0,34.2,13.1,38.1,30.5c2.6-1.6,5.3-3,8.2-4.2c-5.7-20.4-24.4-35.4-46.6-35.4C101.6,9.4,80,31,80,57.7
		C80,71.8,86,84.5,95.7,93.4z"/>
	<linearGradient id="XMLID_39_" gradientUnits="userSpaceOnUse" x1="164.2713" y1="92.2512" x2="255.3446" y2="92.2512">
		<stop  offset="0" style="stop-color:#CCE0F4"/>
		<stop  offset="6.405089e-002" style="stop-color:#C3DCF2"/>
		<stop  offset="0.1706" style="stop-color:#A9D2EE"/>
		<stop  offset="0.3066" style="stop-color:#80C2E7"/>
		<stop  offset="0.4649" style="stop-color:#47ACDE"/>
		<stop  offset="0.5674" style="stop-color:#1E9CD7"/>
		<stop  offset="0.8652" style="stop-color:#0075BE"/>
		<stop  offset="0.9944" style="stop-color:#005B97"/>
	</linearGradient>
	<path id="XMLID_34_" class="st9" d="M169.6,58.1c7.9-5.8,17.6-9.2,28.2-9.2c26.3,0,47.7,21.3,47.7,47.7c0,17.1-9,32.1-22.5,40.5
		l5.6,8.2c16.1-10.2,26.8-28.1,26.8-48.6c0-31.7-25.7-57.4-57.4-57.4c-12.6,0-24.2,4.1-33.7,11L169.6,58.1z"/>
	<linearGradient id="XMLID_40_" gradientUnits="userSpaceOnUse" x1="157.0198" y1="71.9679" x2="285.0198" y2="-143.5321">
		<stop  offset="0" style="stop-color:#CCE0F4"/>
		<stop  offset="6.405089e-002" style="stop-color:#C3DCF2"/>
		<stop  offset="0.1706" style="stop-color:#A9D2EE"/>
		<stop  offset="0.3066" style="stop-color:#80C2E7"/>
		<stop  offset="0.4649" style="stop-color:#47ACDE"/>
		<stop  offset="0.5674" style="stop-color:#1E9CD7"/>
		<stop  offset="0.8652" style="stop-color:#0075BE"/>
		<stop  offset="0.9944" style="stop-color:#005B97"/>
	</linearGradient>
	<circle id="XMLID_24_" class="st10" cx="168.3" cy="52.9" r="4.9"/>
</g>
<rect id="_x3C_切片_x3E_" x="5.1" y="4.7" class="st11" width="257" height="155"/>
</svg>
