<?xml version="1.0" encoding="utf-8"?>
<!-- Generator: Adobe Illustrator 19.0.0, SVG Export Plug-In . SVG Version: 6.00 Build 0)  -->
<svg version="1.1" xmlns="http://www.w3.org/2000/svg" xmlns:xlink="http://www.w3.org/1999/xlink" x="0px" y="0px"
	 viewBox="0 0 300 207" style="enable-background:new 0 0 300 207;" xml:space="preserve">
<style type="text/css">
	.st0{display:none;}
	.st1{display:inline;fill:#020202;}
	.st2{fill:#FFFFFF;}
	.st3{fill:#FFFDFE;}
	.st4{fill:none;stroke:#FFFFFF;stroke-width:14;stroke-miterlimit:10;}
	.st5{fill:#FAFEFF;}
	.st6{fill:none;}
	.st7{fill:#FDFEFF;}
</style>
<g id="图层_2" class="st0">
	<rect id="XMLID_2_" x="10.4" y="12.4" class="st1" width="277.8" height="182.8"/>
</g>
<g id="图层_1">
	<rect id="XMLID_3_" x="191.1" y="68.6" class="st2" width="1" height="5.8"/>
	
		<rect id="XMLID_33_" x="98" y="107" transform="matrix(0.7423 0.6701 -0.6701 0.7423 98.6872 -40.5418)" class="st2" width="8.1" height="2"/>
	
		<rect id="XMLID_114_" x="82.5" y="126" transform="matrix(0.5784 0.8158 -0.8158 0.5784 161.9151 -47.9733)" class="st3" width="89.8" height="13.3"/>
	
		<rect id="XMLID_113_" x="92" y="127.4" transform="matrix(-0.7066 0.7076 -0.7076 -0.7066 327.6719 132.9581)" class="st2" width="88.5" height="14"/>
	<path id="XMLID_36_" class="st4" d="M103,100.9c-20-16.4-51.6-11.1-64.8,11.2c-13.2,22.2-2.9,52.6,21.1,62.2
		c15.8,6.3,34.6,2.4,46.6-9.6"/>
	<circle id="XMLID_110_" class="st2" cx="221.4" cy="176.9" r="8.2"/>
	<circle id="XMLID_109_" class="st5" cx="166.7" cy="103.9" r="7.1"/>
	<circle id="XMLID_108_" class="st2" cx="153.5" cy="169.6" r="6.6"/>
	<circle id="XMLID_106_" class="st2" cx="111.4" cy="110" r="4.6"/>
	<circle id="XMLID_105_" class="st2" cx="109.4" cy="107" r="5"/>
	<rect id="_x3C_切片_x3E__1_" x="23.4" y="32.9" class="st6" width="257" height="155"/>
	<path id="XMLID_117_" class="st2" d="M113.4,103.9h1.3c-5.8-6-9.2-16.5-9.2-26.4c0-23.6,19.2-43,43-43c22,0,40.2,15.4,42.7,37.4
		h15.4c-2.3-29-27.2-52.6-57.5-52.6c-31.9,0-57.4,25.8-57.4,57.5c0,18,8.7,34.1,21.7,44.6V103.9z"/>
	<circle id="XMLID_101_" class="st2" cx="199.2" cy="74.4" r="8.1"/>
	<path id="XMLID_4_" class="st7" d="M214.9,63.9c-6.6,0-13.2,1.1-19,3.1c0.6,1.1,1,2.5,1,3.8c0,1.8-0.6,3.5-1.7,4.9l6.9,6.3h0.2
		c3.9-1,8.1-1.8,12.4-1.8c24.6,0,44.3,19.9,44.3,44.5c0,22.4-16.8,40.9-38.3,44l-1.2,0.3v16h4.1c29.1-4,52.2-29.6,52.2-60.2
		C275.7,91.1,248.5,63.9,214.9,63.9z"/>
	<g id="XMLID_1_">
		<g id="XMLID_16_">
			<path id="XMLID_5_" class="st2" d="M313.9,67.4c1.9,0,1.9-3,0-3C312,64.4,312,67.4,313.9,67.4L313.9,67.4z"/>
		</g>
	</g>
</g>
</svg>
